<svg width="36" height="36" viewBox="0 0 36 36" fill="none" xmlns="http://www.w3.org/2000/svg">
<mask id="path-1-inside-1_5093_5548" fill="white">
<path d="M0 10C0 4.47715 4.47715 0 10 0H26C31.5228 0 36 4.47715 36 10V26C36 31.5228 31.5228 36 26 36H10C4.47715 36 0 31.5228 0 26V10Z"/>
</mask>
<path d="M0 10C0 4.47715 4.47715 0 10 0H26C31.5228 0 36 4.47715 36 10V26C36 31.5228 31.5228 36 26 36H10C4.47715 36 0 31.5228 0 26V10Z" fill="#F9FAFB"/>
<path d="M10 0V1H26V0V-1H10V0ZM36 10H35V26H36H37V10H36ZM26 36V35H10V36V37H26V36ZM0 26H1V10H0H-1V26H0ZM10 36V35C5.02944 35 1 30.9706 1 26H0H-1C-1 32.0751 3.92487 37 10 37V36ZM36 26H35C35 30.9706 30.9706 35 26 35V36V37C32.0751 37 37 32.0751 37 26H36ZM26 0V1C30.9706 1 35 5.02944 35 10H36H37C37 3.92487 32.0751 -1 26 -1V0ZM10 0V-1C3.92487 -1 -1 3.92487 -1 10H0H1C1 5.02944 5.02944 1 10 1V0Z" fill="#E5E7EB" mask="url(#path-1-inside-1_5093_5548)"/>
<path d="M23.9999 18.5267C23.8951 19.6615 23.4692 20.7429 22.7721 21.6445C22.075 22.5461 21.1356 23.2305 20.0637 23.6177C18.9919 24.0049 17.8319 24.0787 16.7196 23.8307C15.6073 23.5827 14.5886 23.023 13.7828 22.2172C12.9769 21.4113 12.4172 20.3927 12.1692 19.2803C11.9212 18.168 11.9951 17.0081 12.3822 15.9362C12.7694 14.8643 13.4538 13.9249 14.3554 13.2278C15.257 12.5308 16.3385 12.1049 17.4733 12C16.8089 12.8988 16.4892 14.0063 16.5723 15.1209C16.6554 16.2356 17.1358 17.2834 17.9262 18.0737C18.7166 18.8641 19.7643 19.3445 20.879 19.4276C21.9936 19.5108 23.1011 19.1911 23.9999 18.5267Z" stroke="#6B7280" stroke-width="1.33333" stroke-linecap="round" stroke-linejoin="round"/>
</svg>
