<svg width="94" height="50" viewBox="0 0 94 50" fill="none" xmlns="http://www.w3.org/2000/svg">
<path fill-rule="evenodd" clip-rule="evenodd" d="M29.5235 36.7641L13.7403 36.7606C13.479 36.7606 13.2673 36.5488 13.2673 36.2876L13.2692 6.63453C13.2692 2.97035 10.2987 0 6.63452 0C2.97048 0 0 2.97035 0 6.63453V34.6798C0 38.2744 2.85926 41.1993 6.42724 41.3091L6.42622 41.3143H8.21136C8.47253 41.3143 8.68427 41.5262 8.68427 41.7875V43.382C8.68427 47.037 11.6472 50 15.3022 50H29.5235C33.1785 50 36.1414 47.037 36.1414 43.382C36.1414 39.727 33.1785 36.7641 29.5235 36.7641ZM8.68058 36.2676C8.68058 36.5288 8.46884 36.7406 8.20766 36.7406H6.63643C5.50753 36.7406 4.59229 35.8254 4.59229 34.6965V6.61837C4.59229 5.48934 5.50753 4.57422 6.63643 4.57422C7.76546 4.57422 8.68058 5.48934 8.68058 6.61837V36.2676ZM31.5764 43.3783C31.5764 44.5191 30.6515 45.4439 29.5106 45.4439H15.3347C14.1938 45.4439 13.269 44.5191 13.269 43.3783V41.7857C13.269 41.5244 13.4808 41.3125 13.7421 41.3125H29.5106C30.6515 41.3125 31.5764 42.2374 31.5764 43.3782V43.3783Z" fill="#FF5F00"/>
<path fill-rule="evenodd" clip-rule="evenodd" d="M44.5067 33.2449H36.1426V16.7656H39.3341V30.3475H44.5067V33.2449Z" fill="#FF5F00"/>
<path fill-rule="evenodd" clip-rule="evenodd" d="M44.5137 24.9678C44.5137 24.0624 44.6342 23.2076 44.8759 22.4041C45.1172 21.6005 45.4755 20.8479 45.951 20.1459C46.7659 18.9616 47.7881 18.0465 49.0181 17.4015C50.248 16.7562 51.591 16.4336 53.0474 16.4336C54.1415 16.4336 55.196 16.6451 56.211 17.0674C57.2258 17.4903 58.1329 18.0974 58.9329 18.8898C59.7553 19.7123 60.3817 20.6367 60.8119 21.6629C61.2418 22.689 61.457 23.7678 61.457 24.8996C61.457 26.0767 61.255 27.1823 60.8515 28.216C60.4477 29.2497 59.8534 30.1666 59.0687 30.9662C58.2766 31.804 57.354 32.4471 56.3016 32.8961C55.2488 33.3449 54.149 33.5696 53.0021 33.5696C51.7722 33.5696 50.6404 33.3505 49.6066 32.9129C48.5729 32.4755 47.6563 31.8264 46.8564 30.9662C46.0868 30.1512 45.504 29.2365 45.1077 28.2217C44.7117 27.207 44.5137 26.1219 44.5137 24.9678ZM47.894 24.8513C47.894 25.5608 48.0109 26.2209 48.2448 26.832C48.4787 27.4433 48.8259 28.0017 49.2862 28.5072C49.7917 29.0579 50.3651 29.4823 51.0064 29.7806C51.6478 30.0787 52.3118 30.2275 52.9985 30.2275C54.4396 30.2275 55.6488 29.7144 56.626 28.6882C57.6033 27.662 58.0918 26.3833 58.0918 24.8513C58.0918 23.4478 57.5993 22.2502 56.6148 21.2577C55.6299 20.2656 54.4473 19.7695 53.0666 19.7695C51.6252 19.7695 50.4028 20.2638 49.3995 21.2522C48.3956 22.2407 47.894 23.4405 47.894 24.8513Z" fill="#FF5F00"/>
<path fill-rule="evenodd" clip-rule="evenodd" d="M63.6807 24.9678C63.6807 24.0624 63.8011 23.2076 64.0429 22.4041C64.284 21.6005 64.6425 20.8479 65.1179 20.1459C65.9327 18.9616 66.9551 18.0465 68.185 17.4015C69.415 16.7562 70.758 16.4336 72.2142 16.4336C73.3083 16.4336 74.363 16.6451 75.378 17.0674C76.3927 17.4903 77.2999 18.0974 78.0998 18.8898C78.9221 19.7123 79.5486 20.6367 79.9789 21.6629C80.4086 22.689 80.6239 23.7678 80.6239 24.8996C80.6239 26.0767 80.4219 27.1823 80.0184 28.216C79.6145 29.2497 79.0204 30.1666 78.2356 30.9662C77.4435 31.804 76.521 32.4471 75.4684 32.8961C74.4157 33.3449 73.3159 33.5696 72.169 33.5696C70.9391 33.5696 69.8072 33.3505 68.7735 32.9129C67.7398 32.4755 66.8231 31.8264 66.0233 30.9662C65.2537 30.1512 64.6708 29.2365 64.2747 28.2217C63.8786 27.207 63.6807 26.1219 63.6807 24.9678ZM67.061 24.8513C67.061 25.5608 67.1779 26.2209 67.4116 26.832C67.6456 27.4433 67.9927 28.0017 68.453 28.5072C68.9585 29.0579 69.532 29.4823 70.1733 29.7806C70.8148 30.0787 71.4788 30.2275 72.1653 30.2275C73.6066 30.2275 74.8157 29.7144 75.793 28.6882C76.7701 27.662 77.2588 26.3833 77.2588 24.8513C77.2588 23.4478 76.7663 22.2502 75.7817 21.2577C74.7969 20.2656 73.6141 19.7695 72.2335 19.7695C70.7921 19.7695 69.5697 20.2638 68.5664 21.2522C67.5626 22.2407 67.061 23.4405 67.061 24.8513Z" fill="#FF5F00"/>
<path fill-rule="evenodd" clip-rule="evenodd" d="M86.8028 33.5731H83.5771V17.0938H87.6741C88.7153 17.0938 89.5361 17.1504 90.136 17.2633C90.7358 17.3767 91.2206 17.5579 91.5905 17.8067C92.2696 18.2671 92.8033 18.8744 93.192 19.629C93.5804 20.3835 93.7748 21.1908 93.7748 22.051C93.7748 23.6281 93.2541 24.8881 92.2129 25.8314C91.1716 26.7746 89.7681 27.2463 88.0025 27.2463H86.8028V33.5731ZM86.8025 24.4617H87.6513C88.5487 24.4617 89.2371 24.2677 89.7164 23.8789C90.1955 23.4905 90.4348 22.9342 90.4348 22.2099C90.4348 21.4629 90.203 20.9068 89.7389 20.5409C89.275 20.1748 88.5714 19.992 87.6284 19.992H86.8025V24.4617Z" fill="#FF5F00"/>
</svg>
