<svg width="99" height="51" viewBox="0 0 99 51" fill="none" xmlns="http://www.w3.org/2000/svg">
<path fill-rule="evenodd" clip-rule="evenodd" d="M29.5235 36.7641L13.7403 36.7606C13.479 36.7606 13.2673 36.5488 13.2673 36.2876L13.2692 6.63453C13.2692 2.97035 10.2987 0 6.63452 0C2.97048 0 0 2.97035 0 6.63453V34.6798C0 38.2744 2.85926 41.1993 6.42724 41.3091L6.42622 41.3143H8.21136C8.47253 41.3143 8.68427 41.5262 8.68427 41.7875V43.382C8.68427 47.037 11.6472 50 15.3022 50H29.5235C33.1785 50 36.1414 47.037 36.1414 43.382C36.1414 39.727 33.1785 36.7641 29.5235 36.7641ZM8.68058 36.2676C8.68058 36.5288 8.46884 36.7406 8.20766 36.7406H6.63643C5.50753 36.7406 4.59229 35.8254 4.59229 34.6965V6.61837C4.59229 5.48934 5.50753 4.57422 6.63643 4.57422C7.76546 4.57422 8.68058 5.48934 8.68058 6.61837V36.2676ZM31.5764 43.3783C31.5764 44.5191 30.6515 45.4439 29.5106 45.4439H15.3347C14.1938 45.4439 13.269 44.5191 13.269 43.3783V41.7857C13.269 41.5244 13.4808 41.3125 13.7421 41.3125H29.5106C30.6515 41.3125 31.5764 42.2374 31.5764 43.3782V43.3783Z" fill="#FF5F00"/>
<path fill-rule="evenodd" clip-rule="evenodd" d="M44.5072 33.2449H36.1431V16.7656H39.3346V30.3475H44.5072V33.2449Z" fill="#FF5F00"/>
<path fill-rule="evenodd" clip-rule="evenodd" d="M44.5137 24.9678C44.5137 24.0624 44.6342 23.2076 44.8759 22.4041C45.1172 21.6005 45.4755 20.8479 45.951 20.1459C46.7659 18.9616 47.7881 18.0465 49.0181 17.4015C50.248 16.7562 51.591 16.4336 53.0474 16.4336C54.1415 16.4336 55.196 16.6451 56.211 17.0674C57.2258 17.4903 58.1329 18.0974 58.9329 18.8898C59.7553 19.7123 60.3817 20.6367 60.8119 21.6629C61.2418 22.689 61.457 23.7678 61.457 24.8996C61.457 26.0767 61.255 27.1823 60.8515 28.216C60.4477 29.2497 59.8534 30.1666 59.0687 30.9662C58.2766 31.804 57.354 32.4471 56.3016 32.8961C55.2488 33.3449 54.149 33.5696 53.0021 33.5696C51.7722 33.5696 50.6404 33.3505 49.6066 32.9129C48.5729 32.4755 47.6563 31.8264 46.8564 30.9662C46.0868 30.1512 45.504 29.2365 45.1077 28.2217C44.7117 27.207 44.5137 26.1219 44.5137 24.9678ZM47.894 24.8513C47.894 25.5608 48.0109 26.2209 48.2448 26.832C48.4787 27.4433 48.8259 28.0017 49.2862 28.5072C49.7917 29.0579 50.3651 29.4823 51.0064 29.7806C51.6478 30.0787 52.3118 30.2275 52.9985 30.2275C54.4396 30.2275 55.6488 29.7144 56.626 28.6882C57.6033 27.662 58.0918 26.3833 58.0918 24.8513C58.0918 23.4478 57.5993 22.2502 56.6148 21.2577C55.6299 20.2656 54.4473 19.7695 53.0666 19.7695C51.6252 19.7695 50.4028 20.2638 49.3995 21.2522C48.3956 22.2407 47.894 23.4405 47.894 24.8513Z" fill="#FF5F00"/>
<path fill-rule="evenodd" clip-rule="evenodd" d="M63.681 24.9678C63.681 24.0624 63.8014 23.2076 64.0432 22.4041C64.2844 21.6005 64.6429 20.8479 65.1182 20.1459C65.9331 18.9616 66.9555 18.0465 68.1854 17.4015C69.4153 16.7562 70.7584 16.4336 72.2146 16.4336C73.3087 16.4336 74.3633 16.6451 75.3783 17.0674C76.3931 17.4903 77.3003 18.0974 78.1001 18.8898C78.9225 19.7123 79.5489 20.6367 79.9793 21.6629C80.409 22.689 80.6243 23.7678 80.6243 24.8996C80.6243 26.0767 80.4223 27.1823 80.0188 28.216C79.6149 29.2497 79.0207 30.1666 78.2359 30.9662C77.4439 31.804 76.5214 32.4471 75.4688 32.8961C74.4161 33.3449 73.3162 33.5696 72.1694 33.5696C70.9394 33.5696 69.8076 33.3505 68.7739 32.9129C67.7401 32.4755 66.8235 31.8264 66.0237 30.9662C65.254 30.1512 64.6712 29.2365 64.2751 28.2217C63.879 27.207 63.681 26.1219 63.681 24.9678ZM67.0614 24.8513C67.0614 25.5608 67.1782 26.2209 67.412 26.832C67.6459 27.4433 67.9931 28.0017 68.4534 28.5072C68.9589 29.0579 69.5323 29.4823 70.1737 29.7806C70.8151 30.0787 71.4792 30.2275 72.1657 30.2275C73.607 30.2275 74.816 29.7144 75.7933 28.6882C76.7705 27.662 77.2592 26.3833 77.2592 24.8513C77.2592 23.4478 76.7667 22.2502 75.7821 21.2577C74.7973 20.2656 73.6145 19.7695 72.2339 19.7695C70.7925 19.7695 69.57 20.2638 68.5668 21.2522C67.563 22.2407 67.0614 23.4405 67.0614 24.8513Z" fill="#FF5F00"/>
<path fill-rule="evenodd" clip-rule="evenodd" d="M86.8028 33.5731H83.5771V17.0938H87.6741C88.7153 17.0938 89.5361 17.1504 90.136 17.2633C90.7358 17.3767 91.2206 17.5579 91.5905 17.8067C92.2696 18.2671 92.8033 18.8744 93.192 19.629C93.5804 20.3835 93.7748 21.1908 93.7748 22.051C93.7748 23.6281 93.2541 24.8881 92.2129 25.8314C91.1716 26.7746 89.7681 27.2463 88.0025 27.2463H86.8028V33.5731ZM86.8025 24.4617H87.6513C88.5487 24.4617 89.2371 24.2677 89.7164 23.8789C90.1955 23.4905 90.4348 22.9342 90.4348 22.2099C90.4348 21.4629 90.203 20.9068 89.7389 20.5409C89.275 20.1748 88.5714 19.992 87.6284 19.992H86.8025V24.4617Z" fill="#FF5F00"/>
<path d="M90.1496 49.4656L88.1367 46.4286L86.3533 49.4656H83.7047L86.9007 44.557L83.6694 39.6836H86.4593L88.4545 42.703L90.2555 39.6836H92.9041L89.6905 44.557L92.9394 49.4656H90.1496Z" fill="white"/>
<path d="M81.0858 38.5247C80.6502 38.5247 80.2853 38.3893 79.991 38.1186C79.7085 37.836 79.5673 37.4888 79.5673 37.0768C79.5673 36.6648 79.7085 36.3234 79.991 36.0527C80.2853 35.7702 80.6502 35.6289 81.0858 35.6289C81.5213 35.6289 81.8803 35.7702 82.1629 36.0527C82.4571 36.3234 82.6043 36.6648 82.6043 37.0768C82.6043 37.4888 82.4571 37.836 82.1629 38.1186C81.8803 38.3893 81.5213 38.5247 81.0858 38.5247ZM82.3041 39.69V49.4721H79.8321V39.69H82.3041Z" fill="white"/>
<path d="M75.1649 41.2066C75.4827 40.6887 75.8947 40.2826 76.4009 39.9883C76.9188 39.694 77.5074 39.5469 78.1666 39.5469V42.1425H77.5133C76.7363 42.1425 76.1478 42.3249 75.7476 42.6898C75.3591 43.0548 75.1649 43.6904 75.1649 44.5968V49.4702H72.6929V39.6881H75.1649V41.2066Z" fill="white"/>
<path d="M68.7256 41.7191V46.4512C68.7256 46.7808 68.8021 47.0221 68.9551 47.1752C69.1199 47.3164 69.3907 47.3871 69.7673 47.3871H70.9151V49.4706H69.3612C67.2777 49.4706 66.2359 48.4583 66.2359 46.4336V41.7191H65.0706V39.6886H66.2359V37.2695H68.7256V39.6886H70.9151V41.7191H68.7256Z" fill="white"/>
<path d="M53.2456 44.542C53.2456 43.5532 53.4398 42.6762 53.8283 41.9111C54.2285 41.1459 54.7641 40.5573 55.4351 40.1453C56.1178 39.7333 56.8771 39.5273 57.7129 39.5273C58.4427 39.5273 59.0783 39.6745 59.6198 39.9688C60.1731 40.2631 60.6145 40.6339 60.9441 41.0812V39.6863H63.4338V49.4683H60.9441V48.0381C60.6263 48.4972 60.1849 48.8797 59.6198 49.1858C59.0666 49.4801 58.425 49.6272 57.6952 49.6272C56.8712 49.6272 56.1178 49.4153 55.4351 48.9916C54.7641 48.5678 54.2285 47.9733 53.8283 47.2082C53.4398 46.4313 53.2456 45.5425 53.2456 44.542ZM60.9441 44.5773C60.9441 43.9769 60.8264 43.4649 60.591 43.0411C60.3555 42.6056 60.0377 42.276 59.6375 42.0523C59.2373 41.8169 58.8076 41.6992 58.3485 41.6992C57.8894 41.6992 57.4657 41.811 57.0772 42.0347C56.6887 42.2583 56.3709 42.5879 56.1237 43.0235C55.8883 43.4472 55.7706 43.9534 55.7706 44.542C55.7706 45.1305 55.8883 45.6485 56.1237 46.0958C56.3709 46.5313 56.6887 46.8668 57.0772 47.1022C57.4774 47.3377 57.9012 47.4554 58.3485 47.4554C58.8076 47.4554 59.2373 47.3436 59.6375 47.1199C60.0377 46.8845 60.3555 46.5549 60.591 46.1311C60.8264 45.6956 60.9441 45.1776 60.9441 44.5773Z" fill="white"/>
<path d="M51.4371 37.1484V49.4731H48.9651V41.4568L45.6632 49.4731H43.7915L40.472 41.4568V49.4731H38V37.1484H40.8075L44.7274 46.3125L48.6472 37.1484H51.4371Z" fill="white"/>
</svg>
