<svg width="38" height="38" viewBox="0 0 38 38" fill="none" xmlns="http://www.w3.org/2000/svg">
<mask id="path-1-inside-1_4769_2399" fill="white">
<path d="M0 11.3867C0 5.86387 4.47715 1.38672 10 1.38672H25.9954C31.5182 1.38672 35.9954 5.86387 35.9954 11.3867V27.3821C35.9954 32.9049 31.5182 37.3821 25.9954 37.3821H10C4.47715 37.3821 0 32.9049 0 27.3821V11.3867Z"/>
</mask>
<path d="M0 11.3867C0 5.86387 4.47715 1.38672 10 1.38672H25.9954C31.5182 1.38672 35.9954 5.86387 35.9954 11.3867V27.3821C35.9954 32.9049 31.5182 37.3821 25.9954 37.3821H10C4.47715 37.3821 0 32.9049 0 27.3821V11.3867Z" fill="white" fill-opacity="0.03"/>
<path d="M10 1.38672V1.99875H25.9954V1.38672V0.774683H10V1.38672ZM35.9954 11.3867H35.3833V27.3821H35.9954H36.6074V11.3867H35.9954ZM25.9954 37.3821V36.77H10V37.3821V37.9941H25.9954V37.3821ZM0 27.3821H0.612036V11.3867H0H-0.612036V27.3821H0ZM10 37.3821V36.77C4.81517 36.77 0.612036 32.5669 0.612036 27.3821H0H-0.612036C-0.612036 33.2429 4.13913 37.9941 10 37.9941V37.3821ZM35.9954 27.3821H35.3833C35.3833 32.5669 31.1802 36.77 25.9954 36.77V37.3821V37.9941C31.8562 37.9941 36.6074 33.2429 36.6074 27.3821H35.9954ZM25.9954 1.38672V1.99875C31.1802 1.99875 35.3833 6.20189 35.3833 11.3867H35.9954H36.6074C36.6074 5.52585 31.8562 0.774683 25.9954 0.774683V1.38672ZM10 1.38672V0.774683C4.13913 0.774683 -0.612036 5.52585 -0.612036 11.3867H0H0.612036C0.612036 6.20189 4.81517 1.99875 10 1.99875V1.38672Z" fill="white" fill-opacity="0.08" mask="url(#path-1-inside-1_4769_2399)"/>
<path d="M21.9927 16.7126C21.9927 15.6518 21.5713 14.6345 20.8212 13.8844C20.0711 13.1343 19.0537 12.7129 17.9929 12.7129C16.9321 12.7129 15.9148 13.1343 15.1647 13.8844C14.4146 14.6345 13.9932 15.6518 13.9932 16.7126C13.9932 21.379 11.9933 22.7123 11.9933 22.7123H23.9925C23.9925 22.7123 21.9927 21.379 21.9927 16.7126Z" stroke="#6B7280" stroke-width="1.26659" stroke-linecap="round" stroke-linejoin="round"/>
<path d="M19.1461 25.3789C19.0289 25.5809 18.8607 25.7487 18.6583 25.8652C18.4559 25.9818 18.2264 26.0432 17.9929 26.0432C17.7593 26.0432 17.5298 25.9818 17.3274 25.8652C17.125 25.7487 16.9568 25.5809 16.8396 25.3789" stroke="#6B7280" stroke-width="1.26659" stroke-linecap="round" stroke-linejoin="round"/>
<path d="M21.3829 7.9995C21.3829 3.5815 24.9644 0 29.3824 0C33.8004 0 37.3819 3.5815 37.3819 7.9995C37.3819 12.4175 33.8004 15.999 29.3824 15.999C24.9644 15.999 21.3829 12.4175 21.3829 7.9995Z" fill="#FF5F00"/>
<path d="M27.711 10.7734V9.80544L29.535 7.97344C29.791 7.7121 29.9803 7.47744 30.103 7.26944C30.2256 7.0561 30.287 6.83744 30.287 6.61344C30.287 6.34144 30.2123 6.13077 30.063 5.98144C29.9136 5.82677 29.711 5.74944 29.455 5.74944C29.1723 5.74944 28.951 5.8321 28.791 5.99744C28.631 6.15744 28.551 6.38144 28.551 6.66944H27.551C27.5563 6.2961 27.6363 5.9761 27.791 5.70944C27.951 5.43744 28.175 5.22677 28.463 5.07744C28.751 4.9281 29.087 4.85344 29.471 4.85344C29.839 4.85344 30.159 4.92277 30.431 5.06144C30.703 5.2001 30.9136 5.39477 31.063 5.64544C31.2123 5.8961 31.287 6.19477 31.287 6.54144C31.287 6.89877 31.1936 7.2481 31.007 7.58944C30.8256 7.92544 30.5323 8.2881 30.127 8.67744L28.911 9.86944H31.359V10.7734H27.711Z" fill="white"/>
</svg>
