<svg width="36" height="36" viewBox="0 0 36 36" fill="none" xmlns="http://www.w3.org/2000/svg">
<mask id="path-1-inside-1_4769_2732" fill="white">
<path d="M0 10C0 4.47715 4.47715 0 10 0H25.9954C31.5182 0 35.9954 4.47715 35.9954 10V25.9954C35.9954 31.5182 31.5182 35.9954 25.9954 35.9954H10C4.47715 35.9954 0 31.5182 0 25.9954V10Z"/>
</mask>
<path d="M0 10C0 4.47715 4.47715 0 10 0H25.9954C31.5182 0 35.9954 4.47715 35.9954 10V25.9954C35.9954 31.5182 31.5182 35.9954 25.9954 35.9954H10C4.47715 35.9954 0 31.5182 0 25.9954V10Z" fill="white" fill-opacity="0.03"/>
<path d="M10 0V0.612036H25.9954V0V-0.612036H10V0ZM35.9954 10H35.3833V25.9954H35.9954H36.6074V10H35.9954ZM25.9954 35.9954V35.3833H10V35.9954V36.6074H25.9954V35.9954ZM0 25.9954H0.612036V10H0H-0.612036V25.9954H0ZM10 35.9954V35.3833C4.81517 35.3833 0.612036 31.1802 0.612036 25.9954H0H-0.612036C-0.612036 31.8562 4.13913 36.6074 10 36.6074V35.9954ZM35.9954 25.9954H35.3833C35.3833 31.1802 31.1802 35.3833 25.9954 35.3833V35.9954V36.6074C31.8562 36.6074 36.6074 31.8562 36.6074 25.9954H35.9954ZM25.9954 0V0.612036C31.1802 0.612036 35.3833 4.81517 35.3833 10H35.9954H36.6074C36.6074 4.13913 31.8562 -0.612036 25.9954 -0.612036V0ZM10 0V-0.612036C4.13913 -0.612036 -0.612036 4.13913 -0.612036 10H0H0.612036C0.612036 4.81517 4.81517 0.612036 10 0.612036V0Z" fill="white" fill-opacity="0.08" mask="url(#path-1-inside-1_4769_2732)"/>
<path d="M17.3728 22.3716C20.1333 22.3716 22.3711 20.1338 22.3711 17.3733C22.3711 14.6128 20.1333 12.375 17.3728 12.375C14.6123 12.375 12.3745 14.6128 12.3745 17.3733C12.3745 20.1338 14.6123 22.3716 17.3728 22.3716Z" stroke="#6B7280" stroke-width="1.24958" stroke-linecap="round" stroke-linejoin="round"/>
<path d="M23.6209 23.6202L20.9031 20.9023" stroke="#6B7280" stroke-width="1.24958" stroke-linecap="round" stroke-linejoin="round"/>
</svg>
