<svg width="36" height="36" viewBox="0 0 36 36" fill="none" xmlns="http://www.w3.org/2000/svg">
<mask id="path-1-inside-1_4769_2736" fill="white">
<path d="M0 10C0 4.47715 4.47715 0 10 0H25.9954C31.5182 0 35.9954 4.47715 35.9954 10V25.9954C35.9954 31.5182 31.5182 35.9954 25.9954 35.9954H10C4.47715 35.9954 0 31.5182 0 25.9954V10Z"/>
</mask>
<path d="M0 10C0 4.47715 4.47715 0 10 0H25.9954C31.5182 0 35.9954 4.47715 35.9954 10V25.9954C35.9954 31.5182 31.5182 35.9954 25.9954 35.9954H10C4.47715 35.9954 0 31.5182 0 25.9954V10Z" fill="white" fill-opacity="0.08"/>
<path d="M10 0V0.612036H25.9954V0V-0.612036H10V0ZM35.9954 10H35.3833V25.9954H35.9954H36.6074V10H35.9954ZM25.9954 35.9954V35.3833H10V35.9954V36.6074H25.9954V35.9954ZM0 25.9954H0.612036V10H0H-0.612036V25.9954H0ZM10 35.9954V35.3833C4.81517 35.3833 0.612036 31.1802 0.612036 25.9954H0H-0.612036C-0.612036 31.8562 4.13913 36.6074 10 36.6074V35.9954ZM35.9954 25.9954H35.3833C35.3833 31.1802 31.1802 35.3833 25.9954 35.3833V35.9954V36.6074C31.8562 36.6074 36.6074 31.8562 36.6074 25.9954H35.9954ZM25.9954 0V0.612036C31.1802 0.612036 35.3833 4.81517 35.3833 10H35.9954H36.6074C36.6074 4.13913 31.8562 -0.612036 25.9954 -0.612036V0ZM10 0V-0.612036C4.13913 -0.612036 -0.612036 4.13913 -0.612036 10H0H0.612036C0.612036 4.81517 4.81517 0.612036 10 0.612036V0Z" fill="white" fill-opacity="0.08" mask="url(#path-1-inside-1_4769_2736)"/>
<g clip-path="url(#clip0_4769_2736)">
<path d="M17.9977 20.4963C19.3779 20.4963 20.4968 19.3774 20.4968 17.9972C20.4968 16.617 19.3779 15.498 17.9977 15.498C16.6174 15.498 15.4985 16.617 15.4985 17.9972C15.4985 19.3774 16.6174 20.4963 17.9977 20.4963Z" stroke="#6B7280" stroke-width="1.24958" stroke-linecap="round" stroke-linejoin="round"/>
<path d="M17.9976 11.75V12.9996M17.9976 22.9962V24.2458M13.5804 13.5806L14.4613 14.4616M21.5339 21.5342L22.4149 22.4151M11.7498 17.9979H12.9993M22.9959 17.9979H24.2455M13.5804 22.4151L14.4613 21.5342M21.5339 14.4616L22.4149 13.5806" stroke="#6B7280" stroke-width="1.24958" stroke-linecap="round" stroke-linejoin="round"/>
</g>
<defs>
<clipPath id="clip0_4769_2736">
<rect width="14.9949" height="14.9949" fill="white" transform="translate(10.5002 10.5)"/>
</clipPath>
</defs>
</svg>
